<?xml version="1.0" standalone="no"?>
<!DOCTYPE svg PUBLIC "-//W3C//DTD SVG 20010904//EN"
 "http://www.w3.org/TR/2001/REC-SVG-20010904/DTD/svg10.dtd">
<svg version="1.0" xmlns="http://www.w3.org/2000/svg"
 width="657.000000pt" height="476.000000pt" viewBox="0 0 657.000000 476.000000"
 preserveAspectRatio="xMidYMid meet">

<g transform="translate(0.000000,476.000000) scale(0.100000,-0.100000)"
fill="#000000" stroke="none">
<path d="M2155 4267 c-8 -25 -65 -254 -65 -260 0 -4 6 -7 13 -7 7 0 65 -15
129 -33 l115 -33 36 138 35 138 -26 7 c-15 3 -73 18 -130 34 -72 19 -104 24
-107 16z"/>
<path d="M2715 4063 c-10 -38 -20 -73 -22 -79 -4 -10 145 -60 153 -51 5 5 44
137 44 148 0 5 -135 49 -151 49 -3 0 -14 -30 -24 -67z"/>
<path d="M1645 4004 c-9 -33 -21 -72 -26 -88 -5 -17 -6 -33 -2 -37 8 -7 151
-49 169 -49 5 0 18 37 29 83 11 45 21 87 23 92 1 6 -28 18 -65 28 -37 10 -78
20 -90 23 -20 5 -24 0 -38 -52z"/>
<path d="M3576 3920 c-7 -21 -69 -464 -106 -755 -58 -458 -86 -655 -92 -660
-2 -1 -29 -7 -60 -13 -120 -23 -262 -94 -370 -184 -99 -83 -194 -242 -234
-393 -26 -96 -26 -331 0 -425 83 -307 326 -538 631 -601 122 -26 287 -22 406
10 181 47 359 174 468 334 184 270 185 650 2 927 -45 69 -149 179 -213 225
l-27 20 45 330 c63 468 74 554 74 574 0 19 -13 36 -131 179 l-66 81 -12 -122
c-7 -67 -21 -180 -32 -252 -51 -345 -128 -880 -126 -880 1 0 38 -18 82 -40
120 -59 218 -160 278 -285 54 -112 67 -170 67 -288 -1 -309 -206 -565 -502
-626 -148 -31 -285 -13 -427 56 -66 31 -101 57 -160 117 -130 130 -184 263
-185 451 -1 177 59 323 183 445 118 117 249 173 426 184 l100 6 62 495 c34
272 72 579 83 683 l21 187 -51 73 c-75 108 -127 165 -134 147z"/>
<path d="M2053 3838 c-6 -24 -40 -157 -77 -297 -37 -139 -65 -255 -64 -256 11
-8 590 -167 594 -162 8 7 158 587 153 591 -4 4 -581 166 -591 166 -2 0 -9 -19
-15 -42z"/>
<path d="M2971 3801 c-5 -20 -15 -56 -21 -80 -6 -23 -10 -44 -8 -46 5 -5 153
-43 156 -40 8 7 42 148 37 154 -4 3 -40 15 -81 27 l-74 22 -9 -37z"/>
<path d="M1200 3598 c-12 -46 -28 -105 -36 -132 -8 -27 -13 -50 -11 -51 17 -9
250 -66 254 -61 8 8 62 216 63 241 0 17 -17 25 -118 53 -64 18 -120 32 -123
32 -4 0 -17 -37 -29 -82z"/>
<path d="M2825 3557 c-29 -84 -71 -267 -61 -267 3 0 63 -16 133 -35 69 -19
128 -33 131 -31 4 5 72 270 69 271 -1 1 -45 12 -97 25 -52 13 -112 29 -133 36
-30 11 -39 11 -42 1z"/>
<path d="M3337 3463 c-73 -171 -136 -338 -182 -473 -41 -123 -42 -125 -86
-149 -24 -13 -86 -51 -137 -84 l-92 -59 -41 -132 c-73 -236 -109 -337 -128
-360 -11 -13 -11 -19 0 -33 13 -16 12 -17 -3 -5 -14 12 -21 6 -55 -43 -21 -31
-57 -80 -79 -109 -89 -113 -91 -119 -99 -251 -5 -102 -44 -458 -60 -547 -4
-24 0 -28 31 -37 20 -6 42 -18 50 -28 16 -22 18 -103 3 -158 -14 -51 -97 -235
-116 -257 -16 -18 -26 -5 109 -158 l74 -85 120 -48 c154 -62 828 -308 1058
-386 l179 -60 124 119 c69 66 133 120 143 120 35 0 176 -32 295 -67 223 -66
258 -73 354 -74 90 -2 96 -1 117 24 33 39 47 124 39 236 -7 89 -19 131 -38
131 -4 0 -6 -4 -3 -9 4 -5 3 -16 0 -24 -6 -16 -31 -15 -61 1 -10 6 -26 6 -40
1 -19 -7 -23 -5 -23 10 0 16 5 17 49 7 30 -6 48 -14 44 -20 -3 -6 0 -6 7 1 7
7 9 16 4 25 -5 7 -9 23 -9 35 -1 22 15 32 75 48 20 6 23 5 13 -6 -19 -20 -16
-33 4 -18 10 8 5 -3 -11 -24 -15 -21 -26 -40 -25 -42 2 -1 40 31 84 73 44 41
65 64 46 52 -37 -25 -52 -28 -117 -17 -51 8 -209 60 -298 98 -65 27 -105 38
-80 21 6 -4 24 -31 40 -59 16 -29 32 -53 37 -53 4 0 7 -7 7 -15 0 -8 5 -24 10
-35 16 -32 31 -62 55 -105 30 -56 37 -77 24 -70 -5 4 -16 2 -23 -4 -17 -14
-205 -81 -227 -81 -10 0 -19 -5 -21 -12 -2 -6 -9 -9 -14 -5 -7 4 -1 62 18 169
15 90 31 180 34 201 8 45 -4 47 -32 4 -57 -87 -186 -234 -268 -305 -52 -44
-61 -49 -53 -28 4 9 3 15 -2 12 -9 -6 -70 69 -176 214 -37 52 -73 98 -78 101
-5 4 -6 12 -3 18 4 7 2 10 -5 9 -8 -2 -14 7 -15 20 -1 12 -5 26 -9 30 -5 4 -5
-2 -1 -13 6 -17 4 -17 -18 4 l-25 24 36 19 c26 14 38 17 47 8 8 -8 6 -9 -6 -5
-10 4 -18 3 -18 -1 0 -5 57 -8 128 -7 258 5 454 12 460 17 3 3 -20 6 -51 6
-31 0 -57 3 -57 8 0 22 43 42 90 42 49 0 68 14 33 23 -10 3 3 4 29 3 27 0 48
-2 48 -3 0 -1 -7 -9 -16 -18 -26 -26 -6 -31 21 -5 14 13 27 21 30 18 3 -3 -10
-19 -29 -36 -19 -17 -30 -32 -24 -34 21 -7 219 239 210 260 -3 10 -1 13 6 8 6
-4 19 5 29 21 9 15 30 45 46 66 l30 39 -7 134 -6 134 32 -7 c18 -3 101 -23
185 -43 129 -31 151 -34 143 -20 -5 9 -49 68 -99 130 -94 118 -240 330 -248
360 -3 9 12 69 32 133 l37 117 -47 113 c-68 161 -139 297 -217 414 -54 80 -81
111 -133 148 -36 25 -65 50 -65 54 0 17 -115 179 -183 258 -62 72 -72 80 -76
61 -1 -13 -25 -174 -51 -358 l-48 -335 72 -75 c82 -87 133 -160 181 -263 131
-275 119 -607 -32 -877 -65 -115 -216 -269 -328 -334 -177 -102 -331 -141
-530 -133 -347 14 -641 197 -795 497 -71 138 -100 248 -107 396 -8 178 22 325
99 478 52 105 84 149 154 218 112 109 241 189 359 224 33 10 63 20 67 24 7 5
16 69 73 558 14 118 32 256 41 309 8 52 13 97 11 100 -3 2 -25 -45 -50 -104z
m1497 -2335 c-26 -32 -35 -37 -51 -31 -18 7 -16 16 7 30 17 11 19 10 14 -5 -4
-12 -1 -11 13 5 10 12 22 22 27 23 5 0 1 -10 -10 -22z m-86 -35 c-27 -7 -21
-21 7 -18 14 2 28 -2 32 -7 4 -7 1 -8 -7 -3 -10 6 -12 4 -7 -9 4 -10 3 -15 -3
-11 -11 7 -35 -34 -32 -52 4 -18 -13 -16 -28 2 -7 8 -20 15 -29 15 -11 0 -7
-8 14 -25 17 -13 25 -24 19 -25 -6 0 -19 9 -29 20 -10 11 -25 20 -34 21 -12 0
-11 3 4 10 15 7 11 8 -15 3 -19 -3 -46 -7 -60 -8 -14 -2 -36 -9 -50 -16 l-25
-13 28 -10 c18 -6 38 -5 59 2 21 8 35 8 42 1 7 -7 3 -10 -12 -10 -12 0 -22 -4
-22 -10 0 -15 -33 -12 -69 6 -17 8 -37 13 -44 11 -6 -3 3 -11 21 -19 18 -8 29
-17 25 -21 -6 -6 12 -10 21 -4 10 5 56 -48 56 -65 0 -29 -26 -21 -40 12 -9 21
-19 30 -36 30 -24 0 -45 20 -22 20 8 0 6 5 -5 11 -9 5 -22 7 -27 4 -6 -3 -7 1
-4 9 3 9 1 16 -6 16 -26 0 19 29 86 55 38 15 74 31 79 35 14 10 45 20 45 15 0
-2 -12 -11 -27 -19 -24 -13 -25 -15 -7 -16 11 0 25 5 30 10 6 6 18 8 27 4 26
-10 20 -22 -8 -16 -14 2 -25 2 -25 -1 0 -8 48 -14 60 -7 6 4 8 14 4 23 -3 9
-10 15 -14 12 -4 -3 -13 2 -20 10 -11 13 -10 14 5 9 12 -5 16 -4 12 3 -8 12 8
22 33 21 10 0 9 -2 -2 -5z m-293 -142 c7 -12 -31 -25 -46 -15 -8 5 -9 3 -4 -5
4 -7 17 -11 29 -9 19 4 21 1 17 -40 l-3 -44 -35 5 c-46 8 -52 15 -28 33 19 15
19 15 -7 9 -22 -6 -28 -4 -28 9 0 9 -7 16 -15 16 -8 0 -15 -4 -15 -9 0 -10
-50 -25 -57 -17 -12 11 69 34 102 29 24 -4 35 -2 35 6 0 8 -8 10 -22 6 -14 -3
-9 2 12 14 39 22 56 25 65 12z m193 -17 c-2 -10 3 -19 10 -21 7 -3 12 4 12 16
0 12 5 21 10 21 16 0 12 -14 -16 -51 -18 -24 -24 -28 -20 -12 4 12 2 24 -3 27
-6 4 -8 13 -4 21 7 20 15 19 11 -1z m-390 -75 c14 0 13 -2 -3 -10 -16 -8 -14
-9 10 -5 17 3 50 2 73 -1 35 -5 40 -8 31 -20 -10 -11 -15 -11 -34 1 -21 14
-24 14 -29 -1 -4 -9 -1 -20 5 -24 6 -4 8 -12 4 -19 -5 -8 -4 -11 3 -6 6 3 14
1 18 -5 4 -8 3 -9 -4 -5 -7 4 -12 3 -12 -1 0 -5 -19 -10 -41 -12 -38 -2 -40
-1 -25 14 20 20 20 31 1 39 -8 3 -15 12 -15 21 0 8 -7 15 -15 15 -18 0 -20
-21 -4 -37 9 -9 8 -16 -4 -28 -20 -19 -88 -25 -94 -7 -3 8 7 12 31 12 20 0 36
3 36 8 0 15 -46 36 -75 33 -16 -2 -27 1 -22 5 15 15 80 32 111 29 17 -1 22 0
11 3 l-20 4 20 8 c11 4 22 3 23 -1 2 -5 11 -9 20 -10z m82 17 c0 -9 -30 -14
-35 -6 -4 6 3 10 14 10 12 0 21 -2 21 -4z m160 -11 c0 -8 -4 -15 -10 -15 -5 0
-10 7 -10 15 0 8 5 15 10 15 6 0 10 -7 10 -15z m-420 -44 c0 -5 -19 -16 -42
-25 l-43 -15 40 4 c32 4 35 3 15 -4 l-25 -9 28 -1 c15 -1 27 4 27 9 0 6 5 10
11 10 6 0 9 -6 6 -14 -3 -8 -1 -17 6 -20 12 -6 -5 -4 -73 9 -22 4 -30 3 -22
-3 9 -6 -4 -9 -38 -11 -27 -1 -50 3 -50 7 0 6 129 65 158 71 1 1 2 -3 2 -8z
m80 -21 c0 -5 -5 -10 -11 -10 -5 0 -7 5 -4 10 3 6 8 10 11 10 2 0 4 -4 4 -10z
m473 -130 c9 -11 17 -28 17 -38 -1 -11 -6 -7 -17 13 -9 17 -21 33 -27 37 -7 5
-7 8 -1 8 6 0 18 -9 28 -20z m47 -30 c0 -11 -4 -20 -9 -20 -5 0 -7 9 -4 20 3
11 7 20 9 20 2 0 4 -9 4 -20z m126 -33 c16 -8 51 -18 78 -22 l49 -8 -33 -13
c-42 -18 -59 -18 -34 1 18 14 18 14 -6 15 -14 0 -47 11 -74 25 -27 14 -58 25
-68 25 -10 0 -18 4 -18 10 0 10 58 -8 106 -33z m-56 2 c12 -8 12 -9 -5 -7 -11
1 -26 -1 -32 -5 -16 -10 -36 1 -28 14 8 12 46 11 65 -2z m-60 -39 c0 -5 -2
-10 -4 -10 -3 0 -8 5 -11 10 -3 6 -1 10 4 10 6 0 11 -4 11 -10z m140 -4 c0 -2
-7 -6 -15 -10 -8 -3 -15 -1 -15 4 0 6 7 10 15 10 8 0 15 -2 15 -4z m-1789 -34
c-7 -2 -18 1 -23 6 -8 8 -4 9 13 5 13 -4 18 -8 10 -11z m1802 1 c-7 -2 -21 -2
-30 0 -10 3 -4 5 12 5 17 0 24 -2 18 -5z m-2236 -27 c0 -8 -6 -12 -15 -9 -11
5 -11 7 0 14 7 5 13 9 14 9 0 0 1 -6 1 -14z m2125 2 c21 21 29 13 12 -13 -15
-24 -17 -24 -30 -8 -7 10 -13 23 -14 28 0 6 5 3 10 -5 7 -12 12 -12 22 -2z
m96 1 c-2 -6 -8 -10 -13 -10 -5 0 -11 4 -13 10 -2 6 4 11 13 11 9 0 15 -5 13
-11z m-58 -33 c0 -8 -4 -18 -10 -21 -14 -9 -12 -25 3 -21 6 1 9 1 5 -1 -5 -3
-8 -12 -8 -20 0 -12 3 -13 13 -4 14 11 27 5 27 -12 0 -6 -3 -7 -7 -4 -3 4 -12
2 -19 -4 -9 -7 -14 -4 -20 13 -3 13 -11 26 -15 29 -10 6 11 59 24 59 4 0 7 -6
7 -14z m80 -40 c0 -11 -19 -15 -25 -6 -3 5 1 10 9 10 9 0 16 -2 16 -4z m-2000
-30 c0 -2 -7 -7 -16 -10 -8 -3 -12 -2 -9 4 6 10 25 14 25 6z m160 -60 c0 -2
-7 -7 -16 -10 -8 -3 -12 -2 -9 4 6 10 25 14 25 6z m87 -22 c-3 -3 -12 -4 -19
-1 -8 3 -5 6 6 6 11 1 17 -2 13 -5z m352 -40 c14 -12 -19 -1 -35 12 -18 14
-18 14 6 3 14 -6 27 -13 29 -15z m-122 -30 c-3 -3 -12 -4 -19 -1 -8 3 -5 6 6
6 11 1 17 -2 13 -5z m193 -14 c0 -5 -2 -10 -4 -10 -3 0 -8 5 -11 10 -3 6 -1
10 4 10 6 0 11 -4 11 -10z m50 -30 c8 -5 11 -10 5 -10 -5 0 -17 5 -25 10 -8 5
-10 10 -5 10 6 0 17 -5 25 -10z m78 -55 c20 -14 32 -25 26 -25 -5 0 -25 11
-44 25 -19 14 -31 25 -26 25 4 0 24 -11 44 -25z m1197 15 c3 -5 1 -10 -4 -10
-6 0 -11 5 -11 10 0 6 2 10 4 10 3 0 8 -4 11 -10z m-78 -16 c-3 -3 -12 -4 -19
-1 -8 3 -5 6 6 6 11 1 17 -2 13 -5z m-1157 -14 c0 -5 -4 -10 -10 -10 -5 0 -10
5 -10 10 0 6 5 10 10 10 6 0 10 -4 10 -10z m1237 -16 c-3 -3 -12 -4 -19 -1 -8
3 -5 6 6 6 11 1 17 -2 13 -5z m-1137 -14 c-12 -7 -8 -10 14 -10 37 0 31 -5
-14 -14 -25 -4 -31 -3 -20 4 13 9 13 10 0 10 -13 0 -13 1 0 10 8 5 20 10 25
10 6 0 3 -5 -5 -10z m79 -39 c7 -5 9 -11 4 -14 -4 -3 -17 1 -28 9 -21 16 0 20
24 5z"/>
<path d="M4740 1060 c0 -5 5 -10 10 -10 6 0 10 5 10 10 0 6 -4 10 -10 10 -5 0
-10 -4 -10 -10z"/>
<path d="M3970 770 c-13 -8 -13 -10 2 -10 9 0 20 5 23 10 8 13 -5 13 -25 0z"/>
<path d="M1630 3397 c-6 -23 -15 -58 -21 -77 -5 -19 -9 -40 -9 -46 0 -13 149
-49 159 -38 12 14 43 142 37 152 -3 5 -18 12 -33 15 -16 4 -49 13 -75 21 l-48
15 -10 -42z"/>
<path d="M1246 3188 c-21 -75 -86 -332 -84 -333 2 0 78 -21 170 -46 l168 -45
9 30 c20 64 82 308 79 311 -2 2 -70 22 -153 44 -82 23 -158 44 -168 47 -9 3
-19 0 -21 -8z"/>
<path d="M2817 3053 c-15 -53 -25 -98 -23 -100 5 -5 179 -54 181 -50 4 5 50
183 50 191 0 7 -151 55 -175 56 -4 0 -18 -43 -33 -97z m82 71 c13 -2 27 -7 30
-11 3 -4 19 -9 36 -11 16 -2 36 -8 45 -13 13 -9 12 -10 -2 -5 -18 5 -26 -9 -9
-16 5 -2 3 -21 -5 -43 -8 -22 -16 -52 -18 -67 -3 -37 -12 -43 -41 -30 -14 6
-32 9 -40 6 -10 -4 -15 -2 -13 7 2 8 21 17 43 20 l40 6 -43 1 c-26 1 -41 6
-37 12 3 5 1 18 -5 27 -10 16 -11 16 -7 -4 4 -16 -1 -23 -21 -28 -37 -9 -44 6
-27 54 8 24 15 52 15 62 0 12 7 19 18 18 10 0 12 -3 4 -6 -13 -5 -7 -23 9 -23
6 0 7 5 4 10 -3 6 2 10 12 11 12 0 9 4 -9 11 -16 5 -28 14 -28 19 0 6 5 7 12
3 7 -4 23 -9 37 -10z m-41 -166 c-15 -5 -34 -6 -42 -1 -10 6 -1 9 27 9 38 1
40 0 15 -8z"/>
<path d="M2967 3066 c21 -28 24 -28 16 2 -3 12 -12 22 -20 22 -11 0 -10 -5 4
-24z"/>
<path d="M2840 3050 c0 -5 5 -10 10 -10 6 0 10 5 10 10 0 6 -4 10 -10 10 -5 0
-10 -4 -10 -10z"/>
<path d="M2842 3004 c-7 -8 -8 -14 -3 -14 10 0 25 19 20 25 -2 1 -10 -3 -17
-11z"/>
<path d="M2933 2943 c9 -2 23 -2 30 0 6 3 -1 5 -18 5 -16 0 -22 -2 -12 -5z"/>
<path d="M1870 3135 c0 -3 -15 -63 -34 -134 l-34 -129 116 -31 c179 -47 160
-53 193 68 15 57 31 116 34 131 l6 27 -131 36 c-132 37 -150 41 -150 32z"/>
<path d="M805 3116 c-8 -21 -45 -161 -45 -167 0 -7 146 -49 172 -49 10 0 21
25 36 87 12 48 21 88 19 89 -1 1 -42 13 -90 27 -62 17 -90 21 -92 13z"/>
<path d="M2303 3008 c-1 -7 -23 -98 -51 -203 -28 -104 -49 -191 -49 -191 1 -1
87 -25 191 -54 103 -28 194 -54 200 -56 9 -3 23 36 46 123 18 70 43 163 55
205 l22 77 -51 15 c-159 46 -344 96 -353 96 -5 0 -10 -6 -10 -12z"/>
<path d="M1611 2698 c-5 -18 -17 -61 -26 -95 -8 -34 -18 -69 -21 -76 -4 -11
22 -21 101 -42 58 -16 107 -26 108 -24 6 7 58 211 55 214 -3 3 -193 55 -201
55 -3 0 -10 -15 -16 -32z"/>
<path d="M1181 2568 c-13 -51 -26 -98 -28 -104 -3 -7 27 -20 74 -32 146 -39
128 -44 151 45 39 146 47 126 -66 156 -54 15 -101 27 -103 27 -2 0 -15 -42
-28 -92z"/>
<path d="M485 2408 c-26 -101 -50 -188 -52 -195 -3 -7 21 -19 64 -32 123 -36
314 -84 317 -80 6 7 96 356 96 372 0 18 -19 25 -206 71 -78 20 -148 38 -156
41 -11 5 -25 -33 -63 -177z"/>
<path d="M1929 2335 l-45 -175 40 -11 c23 -6 97 -26 165 -45 69 -19 126 -34
127 -34 10 0 95 343 87 350 -8 7 -305 90 -321 90 -4 0 -28 -79 -53 -175z"/>
<path d="M2417 2318 c-10 -40 -17 -78 -17 -83 0 -6 29 -19 64 -28 36 -9 71
-19 78 -22 10 -4 19 14 32 67 10 40 20 78 22 84 3 7 -21 18 -58 28 -35 8 -72
18 -84 22 -18 5 -22 -2 -37 -68z"/>
<path d="M1506 2199 c-15 -56 -26 -102 -24 -103 2 -1 47 -14 100 -28 l98 -26
11 42 c6 22 18 67 27 99 8 31 13 60 10 63 -6 5 -176 54 -189 54 -3 0 -18 -46
-33 -101z"/>
<path d="M1065 2108 c-23 -69 -55 -221 -49 -227 11 -10 223 -66 228 -60 7 7
64 234 60 238 -5 5 -206 60 -222 61 -7 0 -15 -6 -17 -12z"/>
<path d="M3418 2106 c-206 -60 -329 -226 -315 -426 9 -130 57 -223 160 -307
98 -81 226 -110 347 -78 181 47 293 165 323 339 30 179 -68 370 -232 448 -53
25 -79 31 -150 34 -53 2 -104 -2 -133 -10z m235 -134 c49 -23 107 -81 136
-137 61 -120 19 -296 -91 -375 -120 -87 -285 -72 -394 35 -162 161 -82 438
143 495 54 13 156 4 206 -18z"/>
<path d="M2161 1903 c-34 -132 -40 -158 -33 -164 4 -3 45 -16 91 -29 66 -17
85 -19 92 -9 10 17 51 180 46 186 -2 2 -37 13 -78 24 -41 11 -82 22 -91 25
-13 4 -19 -4 -27 -33z"/>
<path d="M1759 1816 l-25 -94 80 -21 c45 -12 86 -21 91 -21 11 0 59 179 51
187 -5 5 -146 43 -162 43 -6 0 -22 -42 -35 -94z"/>
<path d="M1226 1652 c-3 -9 -19 -67 -34 -128 l-29 -110 124 -33 c69 -18 128
-29 132 -26 3 4 20 60 37 126 l30 119 -35 10 c-233 62 -220 59 -225 42z"/>
<path d="M1910 1415 c-18 -74 -32 -136 -29 -138 7 -6 252 -67 255 -64 5 5 75
270 72 272 -6 5 -235 65 -249 65 -10 0 -25 -40 -49 -135z"/>
<path d="M5140 1281 c-41 -20 -106 -49 -143 -65 -38 -16 -77 -36 -88 -45 -20
-16 -19 -17 26 -49 54 -38 55 -38 55 -12 0 19 65 90 82 90 5 0 6 4 3 10 -3 5
0 8 7 5 20 -8 99 36 122 67 11 15 18 30 15 32 -2 2 -38 -13 -79 -33z m26 -13
c4 -7 3 -10 -1 -5 -5 4 -18 -1 -29 -10 -21 -18 -21 -18 -2 5 22 26 23 26 32
10z m-221 -118 c-3 -5 -1 -10 6 -10 7 0 10 -3 6 -6 -9 -9 -28 6 -22 17 4 5 8
9 11 9 3 0 2 -4 -1 -10z m55 6 c0 -2 -8 -10 -17 -17 -16 -13 -17 -12 -4 4 13
16 21 21 21 13z"/>
<path d="M1554 1162 l-21 -79 71 -18 c39 -10 76 -20 82 -22 9 -3 45 120 44
153 0 9 -117 44 -147 44 -4 0 -18 -35 -29 -78z"/>
<path d="M5009 871 c-109 -54 -106 -53 -249 -91 l-105 -28 121 -1 c67 -1 155
-4 197 -7 72 -6 77 -6 77 12 0 11 7 29 15 40 8 12 11 25 7 29 -4 5 -2 5 5 1 6
-3 21 7 33 24 21 30 24 61 5 66 -5 2 -53 -19 -106 -45z m94 16 c3 -7 -1 -21
-9 -32 -8 -10 -14 -14 -14 -9 0 6 6 16 13 23 10 11 8 12 -12 6 -21 -6 -22 -5
-10 8 17 20 25 21 32 4z m-63 -27 c-8 -5 -19 -10 -25 -10 -5 0 -3 5 5 10 8 5
20 10 25 10 6 0 3 -5 -5 -10z m23 -21 c-6 -6 -9 -17 -7 -24 3 -6 -2 -18 -11
-25 -13 -11 -15 -10 -9 6 11 35 27 64 33 59 2 -3 0 -10 -6 -16z m-115 -25 c-9
-9 -22 -14 -30 -11 -8 3 -4 8 12 15 35 15 37 14 18 -4z m-58 -24 c-13 -9 -13
-10 0 -10 13 0 13 -1 0 -10 -8 -5 -26 -9 -40 -9 -23 1 -23 2 5 9 l30 8 -30 2
-30 2 30 8 c43 11 52 11 35 0z m57 -26 c-3 -3 -12 -4 -19 -1 -8 3 -5 6 6 6 11
1 17 -2 13 -5z"/>
<path d="M4480 780 c0 -5 4 -10 9 -10 6 0 13 5 16 10 3 6 -1 10 -9 10 -9 0
-16 -4 -16 -10z"/>
<path d="M4490 750 c0 -5 4 -10 9 -10 6 0 13 5 16 10 3 6 -1 10 -9 10 -9 0
-16 -4 -16 -10z"/>
<path d="M4918 533 c12 -2 22 -9 22 -15 0 -5 -6 -8 -14 -5 -8 3 -20 0 -26 -8
-9 -11 -7 -13 15 -11 36 4 55 24 35 36 -8 5 -24 9 -35 8 -17 -1 -17 -1 3 -5z"/>
</g>
</svg>
